<?xml version="1.0" encoding="UTF-8" standalone="no"?>
<svg width="146px" height="134px" viewBox="0 0 146 134" version="1.1" xmlns="http://www.w3.org/2000/svg" xmlns:xlink="http://www.w3.org/1999/xlink" xmlns:sketch="http://www.bohemiancoding.com/sketch/ns">
    <!-- Generator: Sketch 3.5.2 (25235) - http://www.bohemiancoding.com/sketch -->
    <title>Group</title>
    <desc>Created with Sketch.</desc>
    <defs></defs>
    <g id="Page-1" stroke="none" stroke-width="1" fill="none" fill-rule="evenodd" sketch:type="MSPage">
        <g id="sip-savor-copy" sketch:type="MSArtboardGroup" transform="translate(-41.000000, -18.000000)">
            <g id="Group" sketch:type="MSLayerGroup" transform="translate(43.000000, 20.000000)">
                <path d="M72,129 C72,129 -11.0000004,63.4999997 1.5,26 C14.0000004,-11.4999997 53.9999996,1.50000001 68,14.5 C68.0000034,14.5000003 113.000004,-21.5167014 137.5,23.5 C161.999996,68.5167014 72,129 72,129 Z" id="Path-65" stroke="#000000" stroke-width="4" sketch:type="MSShapeGroup"></path>
                <path d="M4.29024943,29.0706279 C4.29024943,29.0706279 37.2902494,44.0706279 43.2902494,44.5706279 C49.2902494,45.0706279 48.7902494,38.5706279 52.2902494,39.0706279 C55.7902494,39.5706279 63.7902494,40.5706279 65.7902494,40.0706279 C67.7902494,39.5706279 74.2902494,16.5706279 74.2902494,16.5706279 C74.2902494,16.5706279 69.2902494,19.5706279 66.7902494,18.5706279 C64.2902494,17.5706279 51.2902494,7.57062792 41.7902494,7.07062792 C32.2902494,6.57062792 15.2902494,8.57062792 8.79024943,18.0706279 C2.29024943,27.5706279 4.29024943,29.0706279 4.29024943,29.0706279 Z" id="Path-66" fill="#F47002" sketch:type="MSShapeGroup"></path>
                <path d="M89.1343757,41.5955843 C90.6343757,48.0955838 93.1343757,50.0955843 95.1343757,51.5955843 C97.1343757,53.0955843 126.634376,65.5955843 126.634376,65.5955843 C126.634376,65.5955843 140.634376,61.5955843 133.634376,32.5955843 C126.634376,3.59558431 104.134376,6.59558431 101.634376,7.59558431 C99.1343755,8.59558431 87.6343757,35.0955849 89.1343757,41.5955843 Z" id="Path-67" fill="#F4F214" sketch:type="MSShapeGroup"></path>
                <path d="M71.4460426,120.700469 C71.4460426,120.700469 111.946043,100.700468 114.946043,86.200468 C109.946043,74.700468 89.4460426,72.200468 86.9460426,73.2004681 C78.9460425,72.2004681 60.9460426,105.700469 64.4460426,113.200468 C67.9460426,120.700467 71.4460426,120.700469 71.4460426,120.700469 Z" id="Path-68" fill="#007ED4" sketch:type="MSShapeGroup"></path>
                <path d="M9.00538219,57.6878525 C9.18663357,55.6940873 27.5053824,58.1878525 36.0053824,63.1878525 C44.5053824,68.1878525 51.505382,70.1878535 52.0053822,77.1878525 C52.5053824,84.1878516 46.0053824,96.687851 44.5053824,96.687851 C43.0053824,96.687851 8.50538219,63.1878527 9.00538219,57.6878525 Z" id="Path-69" fill="#79A01F" sketch:type="MSShapeGroup"></path>
                <path d="M46,101.5 L56.5,112.5 C56.5,112.5 69,80 77,72 C85,64 78,64 75,64.5 C72,65 79.5,60 78,57.5 C77.1935521,56.1559202 74.9418637,57.7023213 73.0320519,59.4196774 C71.3895975,60.8966183 71.5,62.5 70,62.5 C68.5,62.5 69.5,56 68,56 C66.5,56 64,58.5 64,59.5 C64,60.5 65.5,62.5 64,64 C62.5,65.5 58.5,62.5 57,64 C55.5,65.5 55.8545285,65.9903836 56,70.5 C56.1454715,75.0096164 58,72.5 57.5,79.5 C57,86.5 46,101.5 46,101.5 Z" id="Path-70" stroke="#000000" stroke-width="3" fill="#FFFFFF" sketch:type="MSShapeGroup"></path>
                <path d="M4,49 C4,49 36,58.5 39,59.5 C42,60.5 50.5,66 53.5,69 C56.5,69 57,64.5 57,64 C58.5,62.5 63,64 63.5,63 C63.5,62 58,59 59,57.5 C60,56 66.5,56 67,54 C67.5,52 61.9578866,54.4841751 61.5,52.5 C61.0421134,50.5158249 67,49.5 65.5,47.5 C64,45.5 61.5,47 60,46 C58.5,45 63.5,40 60,40.5 C56.5,41 52,46 44.5,46.5 C37,47 2,31.5 2,31.5 L4,49 Z" id="Path-71" stroke="#000000" stroke-width="3" fill="#FFFFFF" sketch:type="MSShapeGroup"></path>
                <path d="M78.5,8.5 C78.5,8.5 73.9654069,28.6603823 71.5,35 C69.0345931,41.3396177 65.0748698,42.9031395 64.5,44.5 C63.9251302,46.0968605 67,45.8334229 67,47.5 C67,49.1665771 63.725515,49.296133 64.5,51 C65.274485,52.703867 69,51.5 69.5,53 C69.8882181,54.1646543 69.1681472,55.6307353 69.4532574,56.2280501 C69.5353509,56.4000385 69.7007809,56.5 70,56.5 C72,57.5 71.5,53 73.5,53 C75.5,53 75.5,55.5 79.5,57 C81,60 81,61 83,61 C85,61 84.5,55.5 86,54.5 C87.5,53.5 93,57 92.5,53.5 C92,50 87,48.5 84.5,40 C82,31.5 96.5,2 96.5,2 L78.5,8.5 Z" id="Path-72" stroke="#000000" stroke-width="3" fill="#FFFFFF" sketch:type="MSShapeGroup"></path>
                <path d="M130.5,71 C130.5,71 96,54 94,53.5 C92,53 94.6436328,55.9942668 93,56.5 C91.3563672,57.0057332 90.0793026,54.0491423 87.5,55.5 C84.9206974,56.9508577 86.6240073,60.3909973 85,61 C83.3759927,61.6090027 81.7390436,58.1048747 79.5,58.5 C77.2609564,58.8951253 76.062688,61.188064 76.5,62.5 C76.937312,63.811936 80.1392288,62.8670746 81.5,64.5 C82.8607712,66.1329254 82.4186305,66.4002733 81.5,68.5 C80.5813695,70.5997267 74.5000001,74.0000007 78,72.5 C81.4999999,70.9999993 86.4999997,67.5000007 93,68.5 C99.5000003,69.4999993 121.5,82.5 121.5,82.5 L130.5,71 Z" id="Path-73" stroke="#000000" stroke-width="3" fill="#FFFFFF" sketch:type="MSShapeGroup"></path>
            </g>
        </g>
    </g>
</svg>