<?xml version="1.0" encoding="UTF-8" standalone="no"?>
<svg width="1157px" height="137px" viewBox="0 0 1157 137" version="1.1" xmlns="http://www.w3.org/2000/svg" xmlns:xlink="http://www.w3.org/1999/xlink" xmlns:sketch="http://www.bohemiancoding.com/sketch/ns">
    <!-- Generator: Sketch 3.5.2 (25235) - http://www.bohemiancoding.com/sketch -->
    <title>logo-white</title>
    <desc>Created with Sketch.</desc>
    <defs></defs>
    <g id="Page-1" stroke="none" stroke-width="1" fill="none" fill-rule="evenodd" sketch:type="MSPage">
        <g id="Artboard-1" sketch:type="MSArtboardGroup" transform="translate(-304.000000, -1960.000000)" fill="#EBF2FA">
            <g id="logo-white" sketch:type="MSLayerGroup" transform="translate(305.000000, 1961.000000)">
                <g id="logo" stroke="#979797" sketch:type="MSShapeGroup">
                    <path d="M70.4443776,82.8346856 C75.2631924,82.8346856 83.4635289,78.4971714 83.4635289,73.6954868 C83.4635289,68.8938022 80.6810718,62.091785 71.8527818,63.4951826 C63.0244919,64.8985801 61.7191416,69.3387819 61.7191416,74.1404665 C61.7191416,78.9421511 65.6255628,82.8346856 70.4443776,82.8346856 Z" id="Oval-15"></path>
                    <path d="M46.1923437,89.9543615 C51.7229067,91.6658209 68.0054337,93.0007615 70.4100263,91.0839244 C64.9138146,91.5631347 45.161804,78.658722 43.23813,74.0720081 C41.3144559,69.4852942 33.8258675,72.9328489 33.8258675,77.7345335 C33.8258675,82.5362181 40.6617808,88.2429021 46.1923437,89.9543615 Z" id="Oval-15"></path>
                    <path d="M89.1314972,91.2205347 C94.6620602,92.9319941 110.944587,94.2669346 113.34918,92.3500975 C107.852968,92.8293078 88.1009575,79.9248952 86.1772834,75.3381813 C84.2536094,70.7514674 76.765021,74.199022 76.765021,79.0007066 C76.765021,83.8023912 83.6009342,89.5090753 89.1314972,91.2205347 Z" id="Oval-15" transform="translate(95.057100, 83.236545) scale(-1, 1) translate(-95.057100, -83.236545) "></path>
                    <path d="M87.0082078,16.8982273 C87.2888659,17.2561762 94.5523747,16.5415921 100.545356,11.8760068 C106.538337,7.21042144 108.710712,0.00264816698 108.710712,0.00264816698 C108.710712,0.00264816698 101.166545,0.359283322 95.1735642,5.02486866 C89.1805831,9.690454 86.7275498,16.5402784 87.0082078,16.8982273 L87.0082078,16.8982273 Z" id="Oval-1"></path>
                    <path d="M76.3445967,28.0420269 C76.7970629,27.9866685 79.9233433,21.4147208 78.9965023,13.8930406 C78.0696613,6.3713603 72.9882085,0.803613056 72.9882085,0.803613056 C72.9882085,0.803613056 69.4094619,7.43091907 70.3363029,14.9525993 C71.2631439,22.4742796 75.8921304,28.0973852 76.3445967,28.0420269 L76.3445967,28.0420269 Z" id="Oval-1"></path>
                    <path d="M45.3307102,29.4366559 C45.7862967,29.4525088 49.9058341,23.4487922 50.1712519,15.8752418 C50.4366696,8.30169146 46.2918728,2.01040389 46.2918728,2.01040389 C46.2918728,2.01040389 41.7167488,7.99826759 41.4513311,15.571818 C41.1859133,23.1453683 44.8751236,29.420803 45.3307102,29.4366559 L45.3307102,29.4366559 Z" id="Oval-1"></path>
                    <path d="M15.4777017,23.2199782 C15.2995814,23.6381117 19.4482193,29.6218992 26.4488448,32.5829249 C33.4494703,35.5439505 40.8292092,33.9428007 40.8292092,33.9428007 C40.8292092,33.9428007 36.8586916,27.5408797 29.8580661,24.579854 C22.8574406,21.6188284 15.6558221,22.8018447 15.4777017,23.2199782 L15.4777017,23.2199782 Z" id="Oval-1"></path>
                    <path d="M24.3921557,41.542653 C24.251286,41.9746644 28.9075191,47.5753895 36.1404961,49.9171718 C43.3734732,52.2589541 50.5850827,50.0229969 50.5850827,50.0229969 C50.5850827,50.0229969 46.0697194,43.9902604 38.8367423,41.6484781 C31.6037653,39.3066958 24.5330255,41.1106416 24.3921557,41.542653 L24.3921557,41.542653 Z" id="Oval-1"></path>
                    <path d="M1.44347453,43.8362716 C1.23651651,44.2410057 4.95615155,50.4985825 11.7324363,53.9389983 C18.508721,57.379414 25.9825723,56.295119 25.9825723,56.295119 C25.9825723,56.295119 22.4698953,49.6328081 15.6936105,46.1923923 C8.91732579,42.7519766 1.65043255,43.4315375 1.44347453,43.8362716 L1.44347453,43.8362716 Z" id="Oval-1"></path>
                    <path d="M0.141298279,80.0474288 C0.376085706,80.4367917 7.67285005,80.6095863 14.1917806,76.7065419 C20.7107112,72.8034975 23.7484343,65.9132546 23.7484343,65.9132546 C23.7484343,65.9132546 16.2168825,65.3510972 9.6979519,69.2541416 C3.1790213,73.157186 -0.0934891489,79.658066 0.141298279,80.0474288 L0.141298279,80.0474288 Z" id="Oval-1"></path>
                    <path d="M65.4784322,52.4306136 C65.6343469,52.857463 73.7214896,54.0671487 82.0492137,51.04688 C90.3769377,48.0266112 95.6357887,41.4932529 95.6357887,41.4932529 C95.6357887,41.4932529 87.3927313,39.8567177 79.0650072,42.8769865 C70.7372831,45.8972552 65.3225174,52.0037641 65.4784322,52.4306136 L65.4784322,52.4306136 Z" id="Oval-1"></path>
                    <path d="M95.2975596,54.9416858 C95.5254918,55.3350723 103.700582,55.1270548 111.375454,50.7117172 C119.050326,46.2963797 123.09073,38.9523341 123.09073,38.9523341 C123.09073,38.9523341 114.687708,38.7669651 107.012836,43.1823026 C99.3379637,47.5976402 95.0696275,54.5482992 95.2975596,54.9416858 L95.2975596,54.9416858 Z" id="Oval-1"></path>
                    <path d="M106.789535,35.3025113 C107.051008,35.6746059 114.813056,35.0111934 121.623835,30.2591879 C128.434613,25.5071825 131.453545,18.0939772 131.453545,18.0939772 C131.453545,18.0939772 123.430023,18.3852951 116.619245,23.1373006 C109.808467,27.8893061 106.528062,34.9304167 106.789535,35.3025113 L106.789535,35.3025113 Z" id="Oval-1"></path>
                    <path d="M76.271147,35.9880063 C76.4492673,36.4061399 84.18012,37.3653082 91.8335888,34.1281521 C99.4870576,30.8909961 103.986809,24.2652271 103.986809,24.2652271 C103.986809,24.2652271 96.0778363,22.8879252 88.4243675,26.1250813 C80.7708987,29.3622374 76.0930267,35.5698728 76.271147,35.9880063 L76.271147,35.9880063 Z" id="Oval-1"></path>
                    <path d="M55.1756375,48.2770797 C55.6312241,48.2612269 59.3158904,41.856133 59.0448674,34.1226399 C58.7738445,26.3891469 54.1941765,20.271624 54.1941765,20.271624 C54.1941765,20.271624 50.0539237,26.6925707 50.3249466,34.4260638 C50.5959696,42.1595569 54.720051,48.2929326 55.1756375,48.2770797 L55.1756375,48.2770797 Z" id="Oval-1"></path>
                    <path d="M127.242287,44.1666461 C127.3136,44.6152973 134.581941,47.4095883 142.794002,46.1135493 C151.006063,44.8175103 156.98079,39.4732737 156.98079,39.4732737 C156.98079,39.4732737 149.641135,36.2303315 141.429074,37.5263705 C133.217014,38.8224095 127.170974,43.7179949 127.242287,44.1666461 L127.242287,44.1666461 Z" id="Oval-1"></path>
                    <path d="M99.5891472,61.9381749 C99.6050566,62.3921419 107.508821,66.0123563 117.090419,65.6789489 C126.672018,65.3455416 134.287185,60.7308001 134.287185,60.7308001 C134.287185,60.7308001 126.367512,56.6566188 116.785913,56.9900261 C107.204314,57.3234335 99.5732378,61.484208 99.5891472,61.9381749 L99.5891472,61.9381749 Z" id="Oval-1"></path>
                    <path d="M71.8871332,96.9713489 C70.4443776,96.5605984 77.0741829,129.934077 82.1581787,133.493915 C87.2421745,137.053752 92.4979261,133.185853 94.7651141,132.740872 C97.0323022,132.295892 73.3298888,97.3820994 71.8871332,96.9713489 Z" id="Path-1"></path>
                    <path d="M77.7612094,95.3968053 C77.7612094,95.3968053 92.1544136,111.552992 109.364426,112.374493 C126.574439,113.195994 139.353131,89.6805274 139.730996,87.9348377 C140.10886,86.1891481 136.206662,87.0917135 136.206662,87.0917135 C129.217422,87.3872197 120.672774,92.5245026 116.310181,97.9883502 C116.310181,97.9883502 115.44461,104.638692 103.21554,104.638692 C90.9864686,104.638692 77.7612094,95.3968053 77.7612094,95.3968053 Z" id="Path-2"></path>
                </g>
                <text id="Los-Altos-Auxiliary" sketch:type="MSTextLayer" font-family="Gotham" font-size="92" font-weight="bold" letter-spacing="5.75">
                    <tspan x="177" y="98">Los Altos Auxiliary</tspan>
                </text>
            </g>
        </g>
    </g>
</svg>