<?xml version="1.0" encoding="UTF-8" standalone="no"?>
<svg width="1193px" height="1031px" viewBox="0 0 1193 1031" version="1.1" xmlns="http://www.w3.org/2000/svg" xmlns:xlink="http://www.w3.org/1999/xlink" xmlns:sketch="http://www.bohemiancoding.com/sketch/ns">
    <!-- Generator: Sketch 3.5.1 (25234) - http://www.bohemiancoding.com/sketch -->
    <title>logo</title>
    <desc>Created with Sketch.</desc>
    <defs></defs>
    <g id="Page-1" stroke="none" stroke-width="1" fill="none" fill-rule="evenodd" sketch:type="MSPage">
        <g id="Artboard-1" sketch:type="MSArtboardGroup" transform="translate(-222.000000, -133.000000)" stroke="#979797" fill="#0D772B">
            <g id="logo" sketch:type="MSLayerGroup" transform="translate(222.000000, 134.000000)">
                <path d="M535.287532,631.384381 C571.904385,631.384381 634.216497,598.322884 634.216497,561.723377 C634.216497,525.12387 613.073367,473.277383 545.98961,483.974391 C478.905852,494.6714 468.986853,528.515604 468.986853,565.115112 C468.986853,601.714619 498.670678,631.384381 535.287532,631.384381 Z" id="Oval-15" sketch:type="MSShapeGroup"></path>
                <path d="M351.002969,685.652133 C393.028202,698.697257 516.754665,708.872471 535.026506,694.261912 C493.262299,697.91456 343.17218,599.554259 328.554707,564.593306 C313.937235,529.632354 257.033503,555.910381 257.033503,592.509888 C257.033503,629.109396 308.977735,672.607009 351.002969,685.652133 Z" id="Oval-15" sketch:type="MSShapeGroup"></path>
                <path d="M677.285835,695.303186 C719.311069,708.34831 843.037532,718.523524 861.309372,703.912965 C819.545165,707.565613 669.455047,609.205312 654.837574,574.244359 C640.220102,539.283407 583.31637,565.561434 583.31637,602.160942 C583.31637,638.760449 635.260602,682.258062 677.285835,695.303186 Z" id="Oval-15" sketch:type="MSShapeGroup" transform="translate(722.312871, 634.447446) scale(-1, 1) translate(-722.312871, -634.447446) "></path>
                <path d="M661.151541,128.802043 C663.284185,131.53041 718.477599,126.083691 764.016621,90.5215628 C809.555643,54.9594345 826.062927,0.0201849172 826.062927,0.0201849172 C826.062927,0.0201849172 768.736869,2.73853732 723.197847,38.3006656 C677.658826,73.8627939 659.018898,126.073677 661.151541,128.802043 L661.151541,128.802043 Z" id="Oval-1" sketch:type="MSShapeGroup"></path>
                <path d="M580.12168,213.74256 C583.559848,213.320606 607.315596,163.227761 600.272785,105.895843 C593.229974,48.563924 554.617406,6.12531729 554.617406,6.12531729 C554.617406,6.12531729 527.423491,56.6401164 534.466302,113.972035 C541.509113,171.303954 576.683513,214.164514 580.12168,213.74256 L580.12168,213.74256 Z" id="Oval-1" sketch:type="MSShapeGroup"></path>
                <path d="M344.455651,224.372733 C347.917528,224.493567 379.220765,178.731905 381.237602,121.004621 C383.254438,63.2773372 351.759263,15.3237452 351.759263,15.3237452 C351.759263,15.3237452 316.994148,60.964573 314.977312,118.691857 C312.960475,176.419141 340.993774,224.251899 344.455651,224.372733 L344.455651,224.372733 Z" id="Oval-1" sketch:type="MSShapeGroup"></path>
                <path d="M117.610816,176.987834 C116.257329,180.174941 147.781692,225.784698 200.977528,248.354294 C254.173364,270.92389 310.249978,258.71957 310.249978,258.71957 C310.249978,258.71957 280.079102,209.922705 226.883267,187.35311 C173.687431,164.783514 118.964304,173.800727 117.610816,176.987834 L117.610816,176.987834 Z" id="Oval-1" sketch:type="MSShapeGroup"></path>
                <path d="M185.349311,316.647333 C184.27888,319.94022 219.66032,362.630191 274.621732,380.479776 C329.583143,398.329361 384.382189,381.286399 384.382189,381.286399 C384.382189,381.286399 350.07118,335.303541 295.109768,317.453955 C240.148356,299.60437 186.419742,313.354446 185.349311,316.647333 L185.349311,316.647333 Z" id="Oval-1" sketch:type="MSShapeGroup"></path>
                <path d="M10.9685676,334.129803 C9.39595026,337.214776 37.6604382,384.911418 89.1515699,411.135031 C140.642702,437.358644 197.43445,429.093907 197.43445,429.093907 C197.43445,429.093907 170.74258,378.312293 119.251448,352.088679 C67.7603164,325.865066 12.5411849,331.04483 10.9685676,334.129803 L10.9685676,334.129803 Z" id="Oval-1" sketch:type="MSShapeGroup"></path>
                <path d="M1.07368692,610.139291 C2.85777228,613.107101 58.303886,614.42418 107.839454,584.674308 C157.375022,554.924436 180.457848,502.405474 180.457848,502.405474 C180.457848,502.405474 123.227649,498.120585 73.6920804,527.870457 C24.1565122,557.620329 -0.710398437,607.171481 1.07368692,610.139291 L1.07368692,610.139291 Z" id="Oval-1" sketch:type="MSShapeGroup"></path>
                <path d="M497.552672,399.637788 C498.737426,402.891329 560.189408,412.111823 623.469503,389.090663 C686.749597,366.069503 726.710165,316.270794 726.710165,316.270794 C726.710165,316.270794 664.073429,303.796759 600.793335,326.817919 C537.513241,349.839079 496.367919,396.384247 497.552672,399.637788 L497.552672,399.637788 Z" id="Oval-1" sketch:type="MSShapeGroup"></path>
                <path d="M724.140055,418.777738 C725.872049,421.776218 787.992318,420.190662 846.311569,386.535978 C904.630819,352.881294 935.332743,296.903346 935.332743,296.903346 C935.332743,296.903346 871.48048,295.490423 813.161229,329.145107 C754.841979,362.799791 722.408061,415.779258 724.140055,418.777738 L724.140055,418.777738 Z" id="Oval-1" sketch:type="MSShapeGroup"></path>
                <path d="M811.464425,269.083586 C813.451287,271.919774 872.432969,266.863096 924.186209,230.642255 C975.939449,194.421413 998.879486,137.916315 998.879486,137.916315 C998.879486,137.916315 937.910942,140.136805 886.157702,176.357647 C834.404462,212.578488 809.477564,266.247398 811.464425,269.083586 L811.464425,269.083586 Z" id="Oval-1" sketch:type="MSShapeGroup"></path>
                <path d="M579.563556,274.308582 C580.917044,277.495688 639.661676,284.806683 697.818289,260.13236 C755.974902,235.458037 790.167283,184.954953 790.167283,184.954953 C790.167283,184.954953 730.069164,174.456852 671.91255,199.131175 C613.755937,223.805498 578.210069,271.121475 579.563556,274.308582 L579.563556,274.308582 Z" id="Oval-1" sketch:type="MSShapeGroup"></path>
                <path d="M419.264558,367.97863 C422.726435,367.857796 450.725205,319.036747 448.665776,260.090344 C446.606347,201.143942 411.806704,154.514823 411.806704,154.514823 C411.806704,154.514823 380.346057,203.456706 382.405486,262.403109 C384.464916,321.349511 415.802681,368.099464 419.264558,367.97863 L419.264558,367.97863 Z" id="Oval-1" sketch:type="MSShapeGroup"></path>
                <path d="M966.879287,336.647991 C967.421174,340.06771 1022.65131,361.366418 1085.05251,351.48772 C1147.45371,341.609023 1192.85403,300.874064 1192.85403,300.874064 C1192.85403,300.874064 1137.082,276.155638 1074.6808,286.034335 C1012.2796,295.913032 966.3374,333.228272 966.879287,336.647991 L966.879287,336.647991 Z" id="Oval-1" sketch:type="MSShapeGroup"></path>
                <path d="M756.750654,472.106533 C756.871545,475.566771 816.930084,503.160849 889.738028,500.619544 C962.545972,498.078239 1020.41154,462.903654 1020.41154,462.903654 C1020.41154,462.903654 960.232112,431.849339 887.424168,434.390644 C814.616224,436.931949 756.629762,468.646296 756.750654,472.106533 L756.750654,472.106533 Z" id="Oval-1" sketch:type="MSShapeGroup"></path>
                <path d="M546.250636,739.13717 C535.287531,736.006339 585.665606,990.38641 624.297498,1017.52028 C662.92939,1044.65416 702.866407,1015.17217 720.094148,1011.78043 C737.321889,1008.38869 557.213741,742.268002 546.250636,739.13717 Z" id="Path-1" sketch:type="MSShapeGroup"></path>
                <path d="M590.886132,727.135649 C590.886132,727.135649 700.256149,850.281694 831.030322,856.543357 C961.804495,862.80502 1058.90628,683.564909 1061.77757,670.258874 C1064.64885,656.95284 957.763846,666.454337 957.763846,666.454337 C947.309281,667.258692 934.944698,675.478417 929.834749,684.630289 C929.834749,684.630289 877.231976,797.579361 784.306616,797.579361 C691.381255,797.579361 590.886132,727.135649 590.886132,727.135649 Z" id="Path-2" sketch:type="MSShapeGroup"></path>
            </g>
        </g>
    </g>
</svg>